<mxfile host="app.diagrams.net" agent="Mozilla/5.0 (Windows NT 10.0; Win64; x64) AppleWebKit/537.36 (KHTML, like Gecko) Chrome/135.0.0.0 Safari/537.36 Edg/135.0.0.0" version="26.2.14">
  <diagram name="Page-1" id="au-ZSvuv_HqpU7fEgm7H">
    <mxGraphModel dx="1034" dy="570" grid="1" gridSize="10" guides="1" tooltips="1" connect="1" arrows="1" fold="1" page="1" pageScale="1" pageWidth="850" pageHeight="1100" math="0" shadow="0">
      <root>
        <mxCell id="0" />
        <mxCell id="1" parent="0" />
        <mxCell id="CcgU2BVZs0qdJiQ4t7ji-1" value="Start" style="ellipse;whiteSpace=wrap;html=1;" vertex="1" parent="1">
          <mxGeometry x="305" y="30" width="120" height="80" as="geometry" />
        </mxCell>
        <mxCell id="CcgU2BVZs0qdJiQ4t7ji-5" value="" style="endArrow=classic;html=1;rounded=0;" edge="1" parent="1">
          <mxGeometry width="50" height="50" relative="1" as="geometry">
            <mxPoint x="360" y="120" as="sourcePoint" />
            <mxPoint x="360" y="170" as="targetPoint" />
            <Array as="points">
              <mxPoint x="360" y="120" />
            </Array>
          </mxGeometry>
        </mxCell>
        <mxCell id="CcgU2BVZs0qdJiQ4t7ji-6" value="Housekeeping" style="swimlane;fontStyle=0;childLayout=stackLayout;horizontal=1;startSize=30;horizontalStack=0;resizeParent=1;resizeParentMax=0;resizeLast=0;collapsible=1;marginBottom=0;whiteSpace=wrap;html=1;" vertex="1" parent="1">
          <mxGeometry x="285" y="180" width="140" height="60" as="geometry" />
        </mxCell>
        <mxCell id="CcgU2BVZs0qdJiQ4t7ji-7" value="Contestants guess correct answer" style="text;strokeColor=none;fillColor=none;align=left;verticalAlign=middle;spacingLeft=4;spacingRight=4;overflow=hidden;points=[[0,0.5],[1,0.5]];portConstraint=eastwest;rotatable=0;whiteSpace=wrap;html=1;" vertex="1" parent="CcgU2BVZs0qdJiQ4t7ji-6">
          <mxGeometry y="30" width="140" height="30" as="geometry" />
        </mxCell>
        <mxCell id="CcgU2BVZs0qdJiQ4t7ji-11" value="" style="endArrow=classic;html=1;rounded=0;" edge="1" parent="1">
          <mxGeometry width="50" height="50" relative="1" as="geometry">
            <mxPoint x="359.5" y="250" as="sourcePoint" />
            <mxPoint x="359.5" y="310" as="targetPoint" />
          </mxGeometry>
        </mxCell>
        <mxCell id="CcgU2BVZs0qdJiQ4t7ji-15" value="" style="edgeStyle=orthogonalEdgeStyle;rounded=0;orthogonalLoop=1;jettySize=auto;html=1;" edge="1" parent="1" source="CcgU2BVZs0qdJiQ4t7ji-12" target="CcgU2BVZs0qdJiQ4t7ji-14">
          <mxGeometry relative="1" as="geometry" />
        </mxCell>
        <mxCell id="CcgU2BVZs0qdJiQ4t7ji-17" value="" style="edgeStyle=orthogonalEdgeStyle;rounded=0;orthogonalLoop=1;jettySize=auto;html=1;" edge="1" parent="1" source="CcgU2BVZs0qdJiQ4t7ji-12" target="CcgU2BVZs0qdJiQ4t7ji-16">
          <mxGeometry relative="1" as="geometry" />
        </mxCell>
        <mxCell id="CcgU2BVZs0qdJiQ4t7ji-27" style="edgeStyle=orthogonalEdgeStyle;rounded=0;orthogonalLoop=1;jettySize=auto;html=1;exitX=0.5;exitY=0;exitDx=0;exitDy=0;entryX=0.5;entryY=1;entryDx=0;entryDy=0;" edge="1" parent="1" source="CcgU2BVZs0qdJiQ4t7ji-12" target="CcgU2BVZs0qdJiQ4t7ji-26">
          <mxGeometry relative="1" as="geometry" />
        </mxCell>
        <mxCell id="CcgU2BVZs0qdJiQ4t7ji-12" value="isAnswerNotCorrect?" style="rhombus;whiteSpace=wrap;html=1;" vertex="1" parent="1">
          <mxGeometry x="290" y="440" width="180" height="90" as="geometry" />
        </mxCell>
        <mxCell id="CcgU2BVZs0qdJiQ4t7ji-19" value="" style="edgeStyle=orthogonalEdgeStyle;rounded=0;orthogonalLoop=1;jettySize=auto;html=1;" edge="1" parent="1" source="CcgU2BVZs0qdJiQ4t7ji-14">
          <mxGeometry relative="1" as="geometry">
            <mxPoint x="730" y="355" as="targetPoint" />
          </mxGeometry>
        </mxCell>
        <mxCell id="CcgU2BVZs0qdJiQ4t7ji-14" value="yes" style="rhombus;whiteSpace=wrap;html=1;" vertex="1" parent="1">
          <mxGeometry x="600" y="445" width="80" height="80" as="geometry" />
        </mxCell>
        <mxCell id="CcgU2BVZs0qdJiQ4t7ji-22" value="" style="edgeStyle=orthogonalEdgeStyle;rounded=0;orthogonalLoop=1;jettySize=auto;html=1;" edge="1" parent="1" source="CcgU2BVZs0qdJiQ4t7ji-16">
          <mxGeometry relative="1" as="geometry">
            <mxPoint x="110" y="485" as="targetPoint" />
          </mxGeometry>
        </mxCell>
        <mxCell id="CcgU2BVZs0qdJiQ4t7ji-16" value="No" style="rhombus;whiteSpace=wrap;html=1;" vertex="1" parent="1">
          <mxGeometry x="80" y="445" width="80" height="80" as="geometry" />
        </mxCell>
        <mxCell id="CcgU2BVZs0qdJiQ4t7ji-20" value="" style="endArrow=none;html=1;rounded=0;exitX=0.958;exitY=0.875;exitDx=0;exitDy=0;exitPerimeter=0;" edge="1" parent="1" source="CcgU2BVZs0qdJiQ4t7ji-1">
          <mxGeometry width="50" height="50" relative="1" as="geometry">
            <mxPoint x="400" y="280" as="sourcePoint" />
            <mxPoint x="720" y="360" as="targetPoint" />
            <Array as="points">
              <mxPoint x="720" y="240" />
            </Array>
          </mxGeometry>
        </mxCell>
        <mxCell id="CcgU2BVZs0qdJiQ4t7ji-25" style="edgeStyle=orthogonalEdgeStyle;rounded=0;orthogonalLoop=1;jettySize=auto;html=1;" edge="1" parent="1" source="CcgU2BVZs0qdJiQ4t7ji-23">
          <mxGeometry relative="1" as="geometry">
            <mxPoint x="120" y="570" as="targetPoint" />
            <Array as="points">
              <mxPoint x="120" y="530" />
              <mxPoint x="121" y="530" />
            </Array>
          </mxGeometry>
        </mxCell>
        <mxCell id="CcgU2BVZs0qdJiQ4t7ji-30" value="" style="edgeStyle=orthogonalEdgeStyle;rounded=0;orthogonalLoop=1;jettySize=auto;html=1;" edge="1" parent="1" source="CcgU2BVZs0qdJiQ4t7ji-23" target="CcgU2BVZs0qdJiQ4t7ji-29">
          <mxGeometry relative="1" as="geometry" />
        </mxCell>
        <mxCell id="CcgU2BVZs0qdJiQ4t7ji-23" value="goToNextQuestion" style="rounded=1;whiteSpace=wrap;html=1;" vertex="1" parent="1">
          <mxGeometry x="60" y="590" width="120" height="60" as="geometry" />
        </mxCell>
        <mxCell id="CcgU2BVZs0qdJiQ4t7ji-26" value="contestantGuess=&amp;gt;3 attempts&lt;div&gt;contestantGuess-&amp;lt;3 attempts&lt;/div&gt;" style="shape=process;whiteSpace=wrap;html=1;backgroundOutline=1;" vertex="1" parent="1">
          <mxGeometry x="295" y="310" width="120" height="110" as="geometry" />
        </mxCell>
        <mxCell id="CcgU2BVZs0qdJiQ4t7ji-29" value="Stop" style="ellipse;whiteSpace=wrap;html=1;" vertex="1" parent="1">
          <mxGeometry x="60" y="690" width="120" height="80" as="geometry" />
        </mxCell>
      </root>
    </mxGraphModel>
  </diagram>
</mxfile>
